PathFileType	4	(X/Y/Z)	/Users/itak/Documents/Research/Walk-IL/dataset/trc/00313_00010.trc
DataRate	CameraRate	NumFrames	NumMarkers	Units	OrigDataRate	OrigDataStartFrame	OrigNumFrames
100.000000	100.000000	4	53	mm	100.000000	64	517
Frame#	Time	RPSI			LPSI			L3			STRN			T10			C7			CLAV			RBAK			LBAK			LSHO			LUPA			LAEL			LAOL			LWTS			LWPS			LFRA			LIFD			LHPS			LHTS			RSHO			RUPA			RAEL			RAOL			RWTS			RWPS			RFRA			RIFD			RHTS			RHPS			RBHD			LFHD			RFHD			LBHD			LHIP			RHIP			RASI			LASI			LKNE			LTHI			LANK			LTIP			LTOE			LMT1			LMT5			LHEE			RKNE			RTHI			RANK			RTIP			RTOE			RMT1			RMT5			RHEE			
		X1	Y1	Z1	X2	Y2	Z2	X3	Y3	Z3	X4	Y4	Z4	X5	Y5	Z5	X6	Y6	Z6	X7	Y7	Z7	X8	Y8	Z8	X9	Y9	Z9	X10	Y10	Z10	X11	Y11	Z11	X12	Y12	Z12	X13	Y13	Z13	X14	Y14	Z14	X15	Y15	Z15	X16	Y16	Z16	X17	Y17	Z17	X18	Y18	Z18	X19	Y19	Z19	X20	Y20	Z20	X21	Y21	Z21	X22	Y22	Z22	X23	Y23	Z23	X24	Y24	Z24	X25	Y25	Z25	X26	Y26	Z26	X27	Y27	Z27	X28	Y28	Z28	X29	Y29	Z29	X30	Y30	Z30	X31	Y31	Z31	X32	Y32	Z32	X33	Y33	Z33	X34	Y34	Z34	X35	Y35	Z35	X36	Y36	Z36	X37	Y37	Z37	X38	Y38	Z38	X39	Y39	Z39	X40	Y40	Z40	X41	Y41	Z41	X42	Y42	Z42	X43	Y43	Z43	X44	Y44	Z44	X45	Y45	Z45	X46	Y46	Z46	X47	Y47	Z47	X48	Y48	Z48	X49	Y49	Z49	X50	Y50	Z50	X51	Y51	Z51	X52	Y52	Z52	X53	Y53	Z53	

65	0.64	-969.97998046875	1012.882995605469	-619.9955444335938	-959.8474731445312	1002.43798828125	-793.8696899414062	-945.2093505859375	1075.623779296875	-709.9469604492188	-694.4996337890625	1250.5673828125	-708.071044921875	-954.6804809570312	1189.659912109375	-712.1975708007812	-910.7750244140625	1434.643188476562	-729.5104370117188	-752.5518798828125	1354.199096679688	-716.0765380859375	-965.2505493164062	1298.332397460938	-651.5802001953125	-921.7932739257812	1396.545532226562	-834.765380859375	-829.5471801757812	1404.237548828125	-883.6450805664062	-847.7776489257812	1285.816772460938	-958.8746337890625	-834.7411499023438	1080.97021484375	-971.4379272460938	-902.3215942382812	1067.600952148438	-918.1223754882812	-758.1246948242188	860.3232421875	-907.899658203125	-782.9049682617188	847.2546997070312	-975.3897705078125	-817.4144897460938	976.7517700195312	-976.3900146484375	-754.6768188476562	673.5650634765625	-907.35400390625	-776.763427734375	758.5828247070312	-971.1246948242188	-731.7776489257812	761.8777465820312	-922.6115112304688	-849.3754272460938	1414.357177734375	-567.0161743164062	-855.4657592773438	1355.481811523438	-498.9701538085938	-839.102783203125	1085.04638671875	-452.0851440429688	-881.8120727539062	1077.332885742188	-536.7506103515625	-740.92431640625	864.8467407226562	-525.425048828125	-769.9086303710938	857.7609252929688	-446.186279296875	-809.494873046875	1018.73291015625	-445.9218444824219	-730.9205322265625	678.8242797851562	-530.9476318359375	-706.1541137695312	749.40185546875	-516.2297973632812	-743.9589233398438	747.047607421875	-456.2848205566406	-894.2247314453125	1590.109497070312	-662.440673828125	-707.056884765625	1636.948486328125	-752.5115356445312	-722.7130126953125	1631.439697265625	-660.6264038085938	-868.0718383789062	1588.269165039062	-806.1196899414062	-888.3180541992188	951.7587890625	-885.1585693359375	-875.16552734375	960.4611206054688	-511.6085205078125	-752.0707397460938	963.615478515625	-576.3471069335938	-751.4329833984375	957.7113037109375	-827.1270751953125	-834.502197265625	484.2639770507812	-847.4384155273438	-835.8502197265625	625.8435668945312	-869.6151123046875	-933.9385986328125	46.86433410644531	-828.1727905273438	-890.6271362304688	261.5517883300781	-847.5614013671875	-727.3326416015625	39.80732727050781	-765.5403442382812	-798.0263061523438	32.79262924194336	-725.6947021484375	-810.7857666015625	41.64535903930664	-838.9803466796875	-980.4288330078125	43.84171676635742	-768.6590576171875	-851.1390380859375	484.9378356933594	-537.2781982421875	-819.8125	747.9291381835938	-510.0181274414062	-935.658935546875	46.40372467041016	-556.689453125	-850.0348510742188	361.3840942382812	-548.0325317382812	-740.2608032226562	44.35041809082031	-605.73046875	-798.6810913085938	39.71824645996094	-646.954833984375	-830.847412109375	37.69123077392578	-533.5897216796875	-987.71533203125	38.98409271240234	-605.2108764648438	
66	0.65	-969.71435546875	1012.934204101562	-620.130126953125	-959.6611938476562	1002.470092773438	-794.0107421875	-944.8995361328125	1075.65087890625	-710.031494140625	-694.1657104492188	1250.506103515625	-708.1654663085938	-954.390869140625	1189.708618164062	-712.2800903320312	-910.2503051757812	1434.683349609375	-729.5449829101562	-752.1670532226562	1354.058227539062	-716.2232055664062	-964.796875	1298.41064453125	-651.6240234375	-921.37060546875	1396.592163085938	-834.8316650390625	-829.1372680664062	1404.225219726562	-883.7322998046875	-847.4407348632812	1285.833862304688	-958.9680786132812	-834.65869140625	1080.994384765625	-971.5852661132812	-902.1386108398438	1067.652709960938	-918.2192993164062	-758.2979125976562	860.1702270507812	-908.2122802734375	-782.9800415039062	847.2515869140625	-975.6956176757812	-817.3509521484375	976.7525634765625	-976.6139526367188	-754.795166015625	673.495849609375	-907.82080078125	-776.9365844726562	758.5894165039062	-971.5057373046875	-731.849365234375	761.7943725585938	-922.9761352539062	-848.8467407226562	1414.327514648438	-567.1088256835938	-854.9283447265625	1355.43603515625	-499.0498352050781	-838.6351928710938	1084.997680664062	-452.1956787109375	-881.5565795898438	1077.314086914062	-536.841796875	-740.70166015625	864.7146606445312	-525.6483154296875	-769.701904296875	857.6709594726562	-446.3849182128906	-809.1343383789062	1018.633666992188	-446.0718383789062	-730.7762451171875	678.6758422851562	-531.161376953125	-705.99462890625	749.27099609375	-516.4594116210938	-743.7542114257812	746.9348754882812	-456.5888366699219	-893.6898803710938	1590.0400390625	-662.36962890625	-706.734130859375	1636.967041015625	-752.605224609375	-722.2009887695312	1631.376220703125	-660.7340698242188	-867.7467651367188	1588.271484375	-806.09716796875	-888.143798828125	951.7673950195312	-885.3089599609375	-875.0007934570312	960.45166015625	-511.7500915527344	-751.8131713867188	963.543701171875	-576.4573364257812	-751.2099609375	957.647216796875	-827.2335205078125	-834.3896484375	484.2190246582031	-847.4867553710938	-835.6817016601562	625.8220825195312	-869.697998046875	-933.9515991210938	46.85445022583008	-828.1820678710938	-890.5493774414062	261.5205688476562	-847.6109008789062	-727.3572387695312	39.81234359741211	-765.5231323242188	-798.0278930664062	32.80536270141602	-725.6917724609375	-810.8040771484375	41.65246200561523	-838.9720458984375	-980.4545288085938	43.82608032226562	-768.6875	-851.1775512695312	484.9267272949219	-537.3622436523438	-819.6520385742188	747.8763427734375	-510.1634216308594	-935.666259765625	46.40556716918945	-556.6941528320312	-850.0518188476562	361.3877258300781	-548.0765380859375	-740.2643432617188	44.35889434814453	-605.738037109375	-798.694580078125	39.71526336669922	-646.9602661132812	-830.8441162109375	37.70176696777344	-533.5972900390625	-987.7279663085938	38.96991729736328	-605.2195434570312	
67	0.66	-969.4415893554688	1012.980712890625	-620.2596435546875	-959.4977416992188	1002.505859375	-794.148681640625	-944.5823974609375	1075.675537109375	-710.1136474609375	-693.8433227539062	1250.432861328125	-708.2675170898438	-954.0977783203125	1189.75341796875	-712.3688354492188	-909.7634887695312	1434.714721679688	-729.59521484375	-751.7781982421875	1353.919189453125	-716.373779296875	-964.3745727539062	1298.481811523438	-651.680908203125	-920.9599609375	1396.628051757812	-834.9099731445312	-828.701171875	1404.20263671875	-883.823974609375	-847.1231079101562	1285.830322265625	-959.0639038085938	-834.5298461914062	1081.006469726562	-971.7283935546875	-901.9208984375	1067.6923828125	-918.30322265625	-758.4314575195312	860.0186767578125	-908.500732421875	-783.0436401367188	847.2343139648438	-975.9865112304688	-817.2618408203125	976.7400512695312	-976.8239135742188	-754.95458984375	673.4219360351562	-908.2847900390625	-777.1116943359375	758.5844116210938	-971.8851928710938	-731.9547729492188	761.7005004882812	-923.3259887695312	-848.3082275390625	1414.294189453125	-567.2028198242188	-854.3829345703125	1355.390991210938	-499.1355590820312	-838.1913452148438	1084.949096679688	-452.313232421875	-881.3099365234375	1077.29150390625	-536.9483642578125	-740.4727783203125	864.600830078125	-525.8623046875	-769.4913940429688	857.578857421875	-446.5849914550781	-808.78955078125	1018.527099609375	-446.2220153808594	-730.61279296875	678.5465698242188	-531.3639526367188	-705.834716796875	749.1620483398438	-516.6759033203125	-743.5494995117188	746.8223266601562	-456.8844299316406	-893.1515502929688	1589.9677734375	-662.30908203125	-706.4020385742188	1636.98388671875	-752.69580078125	-721.703369140625	1631.327758789062	-660.8366088867188	-867.4126586914062	1588.26904296875	-806.0827026367188	-887.9979858398438	951.7728881835938	-885.4629516601562	-874.8419799804688	960.4407348632812	-511.9057312011719	-751.5540771484375	963.449462890625	-576.581298828125	-750.990478515625	957.5697021484375	-827.3445434570312	-834.259521484375	484.1678161621094	-847.5350341796875	-835.5232543945312	625.7992553710938	-869.781005859375	-933.9624633789062	46.84151077270508	-828.1929931640625	-890.4589233398438	261.4830932617188	-847.6600952148438	-727.3843994140625	39.8201904296875	-765.5034790039062	-798.0320434570312	32.82207489013672	-725.686279296875	-810.8248291015625	41.66237640380859	-838.9607543945312	-980.4801025390625	43.80508041381836	-768.7164916992188	-851.2164916992188	484.9169921875	-537.4510498046875	-819.4862060546875	747.8037719726562	-510.3177185058594	-935.6758422851562	46.40719604492188	-556.7001342773438	-850.0674438476562	361.3872985839844	-548.1222534179688	-740.26904296875	44.3688850402832	-605.7494506835938	-798.7094116210938	39.71282196044922	-646.9652099609375	-830.83984375	37.71278381347656	-533.6047973632812	-987.7439575195312	38.95485305786133	-605.2279663085938	
68	0.67	-969.1746215820312	1013.022277832031	-620.3844604492188	-959.3508911132812	1002.544677734375	-794.2839965820312	-944.2636108398438	1075.698486328125	-710.1927490234375	-693.51220703125	1250.351440429688	-708.3831787109375	-953.79931640625	1189.79541015625	-712.4613647460938	-909.3069458007812	1434.73779296875	-729.6641235351562	-751.3872680664062	1353.790771484375	-716.5201416015625	-963.9832763671875	1298.54443359375	-651.7509765625	-920.5567626953125	1396.655395507812	-834.9989013671875	-828.2339477539062	1404.172485351562	-883.9198608398438	-846.8282470703125	1285.810180664062	-959.161865234375	-834.352294921875	1081.010009765625	-971.8688354492188	-901.6802978515625	1067.724365234375	-918.3761596679688	-758.5284423828125	859.8749389648438	-908.77490234375	-783.1006469726562	847.2045288085938	-976.263427734375	-817.1563720703125	976.7169799804688	-977.0220947265625	-755.1525268554688	673.3505249023438	-908.73486328125	-777.28857421875	758.5689697265625	-972.2569580078125	-732.0809326171875	761.6041259765625	-923.6740112304688	-847.760498046875	1414.255981445312	-567.2944946289062	-853.839599609375	1355.346313476562	-499.2290344238281	-837.7863159179688	1084.898071289062	-452.4375610351562	-881.0560913085938	1077.263671875	-537.0701293945312	-740.2393798828125	864.5070190429688	-526.0703125	-769.2711791992188	857.4816284179688	-446.785888671875	-808.462646484375	1018.415222167969	-446.3752136230469	-730.431640625	678.4323120117188	-531.5558471679688	-705.6702270507812	749.0750122070312	-516.8849487304688	-743.3511962890625	746.7157592773438	-457.1554260253906	-892.606689453125	1589.895751953125	-662.2606201171875	-706.0480346679688	1636.999877929688	-752.7841186523438	-721.2140502929688	1631.293823242188	-660.9368896484375	-867.060546875	1588.263671875	-806.076416015625	-887.8818359375	951.7748413085938	-885.6181640625	-874.6681518554688	960.428466796875	-512.0751953125	-751.2848510742188	963.3391723632812	-576.725341796875	-750.7757568359375	957.47998046875	-827.4625244140625	-834.1069946289062	484.1094360351562	-847.585693359375	-835.3767700195312	625.7736206054688	-869.8676147460938	-933.9697875976562	46.82433319091797	-828.2070922851562	-890.3580322265625	261.4420776367188	-847.7093505859375	-727.4115600585938	39.83491516113281	-765.4842529296875	-798.0389404296875	32.83879089355469	-725.6793823242188	-810.8475341796875	41.67465972900391	-838.947265625	-980.5048217773438	43.77874755859375	-768.7459716796875	-851.2510375976562	484.9096374511719	-537.5458984375	-819.322509765625	747.7108154296875	-510.474365234375	-935.6870727539062	46.40762329101562	-556.7072143554688	-850.0800170898438	361.3821716308594	-548.1712646484375	-740.2745361328125	44.37986373901367	-605.7642822265625	-798.7244873046875	39.70980834960938	-646.97021484375	-830.8364868164062	37.72429656982422	-533.6117553710938	-987.7626342773438	38.93914031982422	-605.2360229492188	
